<svg width="46" height="40" viewBox="0 0 46 40" fill="none" xmlns="http://www.w3.org/2000/svg">
<path d="M45.9189 26.8834C45.9189 33.8031 40.3094 39.4126 33.3897 39.4126L14.5958 39.4126C12.6737 39.4126 11.1155 37.8544 11.1155 35.9322L11.1155 12.2659C11.1155 8.4216 14.2319 5.30519 18.0762 5.30519L42.4386 5.30519C44.3607 5.30519 45.9189 6.8634 45.9189 8.78554L45.9189 26.8834Z" fill="#E8F5E9"/>
<path d="M17.373 7.39331C14.8872 7.39331 12.8635 9.4355 12.8635 11.9319C12.8635 13.5112 13.6744 14.9056 14.899 15.7184C13.42 16.213 12.1402 17.1372 11.2015 18.3464C10.6825 17.9473 10.1027 17.6262 9.47754 17.3962C10.4255 16.6924 11.045 15.5619 11.045 14.2913C11.045 12.1741 9.33257 10.4408 7.22814 10.4408C5.1237 10.4408 3.41131 12.1741 3.41131 14.2913C3.41131 15.5627 4.0313 16.6937 4.98005 17.3974C2.46823 18.3243 0.674316 20.7511 0.674316 23.607V25.6132C0.674573 25.7662 0.735749 25.9127 0.844219 26.0204C0.952688 26.1283 1.09946 26.1885 1.2524 26.188H10.0542C10.0755 26.1903 10.0968 26.1916 10.1182 26.1913H24.6283C24.6497 26.1916 24.6713 26.1903 24.6923 26.188H33.4948C33.8112 26.1867 34.0675 25.9299 34.0682 25.6132V23.607C34.0682 20.7511 32.2774 18.3243 29.7669 17.3972C30.7156 16.6937 31.3356 15.5624 31.3356 14.2911C31.3356 12.1738 29.6233 10.4406 27.5188 10.4406C25.4144 10.4406 23.702 12.1738 23.702 14.2911C23.702 15.5617 24.3217 16.6924 25.2697 17.3959C24.6433 17.6265 24.0631 17.9486 23.5434 18.3487C22.6052 17.1388 21.3272 16.2132 19.8482 15.7184C21.0725 14.9056 21.8837 13.5112 21.8837 11.9319C21.8837 9.4355 19.859 7.39331 17.3732 7.39331H17.373ZM17.373 8.54486C19.2322 8.54486 20.731 10.0537 20.731 11.9319C20.731 13.7955 19.2556 15.2896 17.417 15.3136C17.4023 15.3136 17.3879 15.3115 17.373 15.3115C17.3581 15.3115 17.344 15.3136 17.3291 15.3136C15.4905 15.2899 14.016 13.7955 14.016 11.9319C14.016 10.0535 15.5136 8.54486 17.3728 8.54486H17.373ZM7.2282 11.5923C8.70337 11.5923 9.89348 12.7896 9.89348 14.2913C9.89348 15.7829 8.71877 16.975 7.25748 16.9912C7.24772 16.9912 7.23821 16.9902 7.22818 16.9902C7.21841 16.9902 7.2089 16.9912 7.19888 16.9912C5.7376 16.975 4.56289 15.7826 4.56289 14.2913C4.56289 12.7897 5.753 11.5923 7.22816 11.5923H7.2282ZM27.5185 11.5923C28.9936 11.5923 30.1837 12.7896 30.1837 14.2913C30.1837 15.7829 29.009 16.975 27.5478 16.9912C27.538 16.9912 27.5285 16.9902 27.5185 16.9902C27.5087 16.9902 27.4992 16.9912 27.4891 16.9912C26.0279 16.975 24.8532 15.7826 24.8532 14.2913C24.8532 12.7897 26.0433 11.5923 27.5184 11.5923H27.5185ZM17.3289 16.4651C17.3436 16.4653 17.358 16.4671 17.3729 16.4671C17.3875 16.4671 17.4019 16.4651 17.4168 16.4651C21.1041 16.4887 24.055 19.465 24.055 23.1908L24.0548 25.0394H10.6915V23.1908C10.6915 19.4647 13.6416 16.4888 17.3284 16.4651H17.3289ZM7.18411 18.1441C7.19877 18.1444 7.21316 18.1461 7.22807 18.1461C7.24298 18.1461 7.25711 18.1441 7.27202 18.1441C8.51918 18.1541 9.65737 18.5841 10.5637 19.3036C9.91515 20.4511 9.54011 21.7755 9.54011 23.1911V25.0354H1.8254V23.607C1.8254 20.579 4.20614 18.1677 7.18398 18.1438L7.18411 18.1441ZM27.4744 18.1441C27.4893 18.1444 27.5034 18.1461 27.5183 18.1461C27.5332 18.1461 27.5474 18.1441 27.5623 18.1441C30.5401 18.1677 32.9209 20.5793 32.9209 23.6072V25.0354H25.2022L25.202 23.1911C25.202 21.7763 24.828 20.4528 24.1807 19.3056C25.0873 18.5852 26.2262 18.1541 27.4745 18.1441H27.4744Z" fill="#103E13"/>
</svg>
