<svg width="35" height="34" viewBox="0 0 35 34" fill="none" xmlns="http://www.w3.org/2000/svg">
<g clip-path="url(#clip0_211_2332)">
<path d="M12.4106 6.38647C14.0523 6.38657 15.6544 6.89158 16.9995 7.83276C18.3447 8.77407 19.3676 10.1067 19.9302 11.6492C20.4927 13.1916 20.5674 14.8696 20.144 16.4558C19.7206 18.0421 18.8194 19.4604 17.563 20.5173L17.1401 20.8728L17.644 21.1003C19.7136 22.0369 21.4942 23.5111 22.8013 25.3689L22.8062 25.3757L22.812 25.3826C22.9136 25.5127 22.9877 25.6625 23.0298 25.822C23.0718 25.9815 23.0804 26.1481 23.0562 26.3113C23.0319 26.4745 22.9747 26.6308 22.8882 26.7712C22.8016 26.9117 22.6881 27.0337 22.5532 27.1287C22.4184 27.2236 22.2653 27.2898 22.104 27.324C21.9426 27.3581 21.7756 27.3591 21.6138 27.3269C21.4519 27.2947 21.2977 27.2299 21.1616 27.1365H21.1626C21.0265 27.0431 20.91 26.9234 20.8218 26.7839L20.8179 26.7771L20.813 26.7703L20.6313 26.5203C19.7073 25.2849 18.5162 24.272 17.145 23.5593C15.6826 22.7993 14.0587 22.4022 12.4106 22.4021C10.7624 22.4021 9.13781 22.7992 7.67529 23.5593C6.21273 24.3195 4.95448 25.4212 4.00732 26.7703L4.00635 26.7712C3.89503 26.931 3.74646 27.0612 3.57373 27.1511C3.40091 27.241 3.20897 27.2884 3.01416 27.2878H3.01221C2.76231 27.2887 2.51825 27.2105 2.31494 27.0652L2.31299 27.0642L2.21826 26.99C2.00678 26.8069 1.8642 26.5551 1.81592 26.2771C1.76767 25.9991 1.81718 25.7141 1.95459 25.4705L2.01904 25.3689C3.32611 23.5111 5.10676 22.0369 7.17627 21.1003L7.68018 20.8728L7.25732 20.5173C6.0009 19.4604 5.09972 18.0421 4.67627 16.4558C4.2529 14.8696 4.32764 13.1916 4.89014 11.6492C5.45267 10.1067 6.47557 8.77407 7.8208 7.83276C9.16603 6.89149 10.7688 6.38647 12.4106 6.38647ZM23.0464 6.39624H23.0483C24.6911 6.39154 26.2956 6.89402 27.6431 7.83374C28.9904 8.77352 30.0155 10.106 30.5786 11.6492C31.1416 13.1922 31.2158 14.8712 30.7905 16.4578C30.365 18.0445 29.4604 19.4619 28.2007 20.5164L27.7759 20.8718L28.2808 21.1003C30.3503 22.0369 32.1309 23.5111 33.438 25.3689L33.4399 25.3708C33.5327 25.5007 33.5987 25.6479 33.6343 25.8035C33.6698 25.9591 33.6743 26.1208 33.647 26.2781C33.6196 26.4354 33.561 26.5859 33.4751 26.7205C33.3891 26.8551 33.2772 26.9713 33.146 27.0623L33.1421 27.0652C32.9388 27.2105 32.6947 27.2877 32.4448 27.2869C32.2497 27.2856 32.0573 27.2383 31.8843 27.1482C31.7111 27.058 31.5617 26.9276 31.4487 26.7683C30.4997 25.4222 29.2415 24.3233 27.7798 23.5642C26.4091 22.8525 24.897 22.4588 23.356 22.4109L23.0474 22.406L22.9263 22.4001C22.6476 22.3724 22.3858 22.2492 22.186 22.0496C21.9576 21.8211 21.8286 21.5113 21.8286 21.1882C21.8286 20.8652 21.9576 20.5553 22.186 20.3269C22.4145 20.0986 22.7244 19.9705 23.0474 19.9705C24.5241 19.9704 25.9406 19.3828 26.9849 18.3386C28.0289 17.2944 28.6157 15.8778 28.6157 14.4011C28.6156 12.9244 28.0291 11.5078 26.9849 10.4636C26.0057 9.4845 24.6992 8.9078 23.3228 8.8396L23.0474 8.83276C22.5383 8.83183 22.0311 8.90208 21.5415 9.04175L21.4204 9.07202C21.3019 9.09487 21.1805 9.09957 21.0601 9.08667C20.8994 9.06946 20.7436 9.02104 20.6021 8.94312C20.4607 8.86526 20.3362 8.75993 20.2358 8.63354C20.1354 8.507 20.0609 8.36133 20.0171 8.20581C19.9733 8.0503 19.9612 7.88764 19.981 7.72729C20.0007 7.56701 20.0523 7.41247 20.1323 7.27222C20.2124 7.13192 20.3197 7.00837 20.4478 6.90991C20.5758 6.81157 20.7223 6.7393 20.8784 6.698L20.8843 6.69702C21.5875 6.49683 22.3153 6.39503 23.0464 6.39624ZM13.4966 8.94019C12.4164 8.72532 11.2963 8.83512 10.2788 9.25659C9.26143 9.67806 8.39161 10.3918 7.77979 11.3074C7.16797 12.223 6.84137 13.2999 6.84131 14.4011C6.84131 15.8778 7.42812 17.2944 8.47217 18.3386C9.51647 19.3829 10.9338 19.9705 12.4106 19.9705C13.5116 19.9704 14.5879 19.6435 15.5034 19.032C16.4192 18.4201 17.1337 17.5495 17.5552 16.532C17.9765 15.5146 18.0864 14.3952 17.8716 13.3152C17.6567 12.235 17.1269 11.2424 16.3481 10.4636C15.5694 9.68487 14.5767 9.15506 13.4966 8.94019Z" fill="#4CAF4F" stroke="#4CAF4F" stroke-width="0.696069"/>
</g>
<defs>
<clipPath id="clip0_211_2332">
<rect width="33.4113" height="33.4113" fill="white" transform="translate(0.924805 0.306152)"/>
</clipPath>
</defs>
</svg>
