<svg width="805" height="70" viewBox="0 0 805 70" fill="none" xmlns="http://www.w3.org/2000/svg">
<g clip-path="url(#clip0_211_2045)">
<path fill-rule="evenodd" clip-rule="evenodd" d="M9.97876 21.1499C13.823 21.1499 16.9395 24.2663 16.9395 28.1106V21.1499H23.9002C27.7444 21.1499 30.8608 24.2663 30.8608 28.1106C30.8608 31.9548 27.7444 35.0713 23.9002 35.0713C27.7444 35.0713 30.8608 38.1877 30.8608 42.032C30.8608 43.9408 30.0925 45.6702 28.8482 46.9277L28.8221 46.954L28.799 46.9769C27.5412 48.223 25.8106 48.9927 23.9002 48.9927C22.0027 48.9927 20.2826 48.2335 19.027 47.0023C19.0107 46.9863 18.9944 46.9701 18.9782 46.954C18.9629 46.9387 18.9478 46.9234 18.9327 46.908C17.6998 45.6522 16.9395 43.9309 16.9395 42.032C16.9395 45.8762 13.823 48.9927 9.97876 48.9927C6.13447 48.9927 3.01807 45.8762 3.01807 42.032V35.0713H9.97876C6.13447 35.0713 3.01807 31.9548 3.01807 28.1106C3.01807 24.2663 6.13447 21.1499 9.97876 21.1499ZM15.5473 28.1106C15.5473 31.186 13.0542 33.6792 9.97876 33.6792V22.542C13.0542 22.542 15.5473 25.0352 15.5473 28.1106ZM29.4687 42.032C29.4687 38.9565 26.9756 36.4634 23.9002 36.4634C20.8247 36.4634 18.3316 38.9565 18.3316 42.032H29.4687ZM4.41021 36.4634V42.032C4.41021 45.1074 6.90333 47.6005 9.97876 47.6005C13.0542 47.6005 15.5473 45.1074 15.5473 42.032V36.4634H4.41021ZM18.3316 33.6792V22.542H23.9002C26.9756 22.542 29.4687 25.0352 29.4687 28.1106C29.4687 31.186 26.9756 33.6792 23.9002 33.6792H18.3316Z" fill="#263238"/>
</g>
<g clip-path="url(#clip1_211_2045)">
<path fill-rule="evenodd" clip-rule="evenodd" d="M138.046 28.0838L131.095 34.9647C132.485 36.341 134.073 37.501 135.805 38.4084C136.283 39.6653 137.034 40.8439 138.055 41.8554C141.9 45.6611 148.133 45.6611 151.977 41.8554C152.999 40.8439 153.749 39.6653 154.227 38.4084C155.959 37.501 157.547 36.341 158.938 34.9647L151.992 28.0894C151.987 28.0842 151.982 28.0791 151.977 28.074C148.133 24.2683 141.9 24.2683 138.055 28.074C138.052 28.0772 138.049 28.0805 138.046 28.0838ZM151.312 39.6499C149.286 40.3266 147.16 40.6732 145.016 40.6732C142.872 40.6732 140.746 40.3266 138.721 39.6499C138.94 39.9381 139.182 40.2147 139.448 40.4773C142.523 43.5218 147.509 43.5218 150.585 40.4773C150.85 40.2147 151.092 39.9381 151.312 39.6499ZM139.59 29.3143C140.113 29.6559 140.668 29.9481 141.249 30.1864C142.443 30.6762 143.723 30.9282 145.016 30.9282C146.309 30.9282 147.589 30.6762 148.783 30.1864C149.364 29.9481 149.92 29.6558 150.442 29.3143C147.405 26.4535 142.627 26.4535 139.59 29.3143Z" fill="#3B4158"/>
</g>
<g clip-path="url(#clip2_211_2045)">
<path d="M292.58 31.9507C292.584 31.9217 292.584 31.8924 292.58 31.8634C292.584 31.8397 292.584 31.8156 292.58 31.7919L292.297 29.7506C292.256 29.5063 292.146 29.2781 291.981 29.0913L291.932 29.0357L291.843 28.9483L286.933 24.8021L287.071 24.9372C286.958 24.805 286.817 24.6993 286.657 24.6278C286.497 24.5563 286.323 24.5209 286.147 24.5241H284.656C284.414 24.5194 284.177 24.595 283.984 24.7386C283.781 24.5958 283.537 24.5207 283.287 24.5241H281.796C281.601 24.521 281.408 24.5686 281.237 24.662C281.067 24.7555 280.924 24.8915 280.824 25.0563C280.67 25.2917 280.612 25.5753 280.662 25.8506L280.849 27.1373C280.725 27.0687 280.585 27.0331 280.443 27.0341H273.225C272.966 27.0357 272.713 27.1101 272.495 27.2485C272.285 27.3774 272.117 27.5619 272.009 27.7807L271.45 27.3121C271.23 27.1125 270.94 27.0043 270.64 27.0103H259.313C259.054 27.0149 258.799 27.0861 258.576 27.2168C258.271 27.392 258.047 27.6769 257.952 28.0111L254.355 39.8063C254.288 40.0006 254.281 40.2102 254.336 40.4083C254.391 40.6063 254.505 40.7839 254.663 40.9183C254.704 40.9525 254.747 40.9844 254.793 41.0136C254.793 41.0136 254.72 40.9659 254.679 40.9262L259.589 45.0804C259.797 45.2678 260.068 45.3726 260.35 45.3742H271.766C272.027 45.3676 272.281 45.2936 272.503 45.1598C272.629 45.0924 272.742 45.0037 272.836 44.8976L272.876 44.842L272.941 44.7626L272.99 44.6752L273.524 45.128C273.729 45.308 273.995 45.4071 274.27 45.406H285.71C285.97 45.3975 286.224 45.3237 286.447 45.1916C286.57 45.1201 286.682 45.0318 286.779 44.9294L286.82 44.8738L286.884 44.7944C286.919 44.7442 286.949 44.691 286.974 44.6355C287 44.5874 287.022 44.5368 287.038 44.4846L290.32 33.7141V33.6188C290.324 33.5818 290.324 33.5445 290.32 33.5076V33.4361C290.324 33.4124 290.324 33.3883 290.32 33.3646C290.323 33.3143 290.323 33.2639 290.32 33.2136H291.373C291.465 33.2219 291.557 33.2219 291.648 33.2136H291.721C291.781 33.1963 291.838 33.1723 291.891 33.1422H291.973L292.118 33.031L292.183 32.9833L292.297 32.8403V32.7927L292.378 32.6577C292.373 32.6314 292.373 32.6045 292.378 32.5782C292.373 32.5654 292.373 32.5514 292.378 32.5385C292.395 32.492 292.408 32.4441 292.418 32.3955C292.414 32.3799 292.414 32.3635 292.418 32.3479C292.414 32.3242 292.414 32.3 292.418 32.2764C292.418 32.2764 292.58 31.9666 292.58 31.9507Z" fill="black"/>
<path d="M270.972 27.916C271.015 27.9542 271.045 28.0043 271.058 28.0597C271.071 28.1151 271.067 28.173 271.045 28.2258L267.456 40.0131C267.411 40.1417 267.318 40.2493 267.196 40.3149C267.098 40.3798 266.983 40.4181 266.864 40.4261H255.457C255.359 40.4215 255.267 40.3819 255.197 40.3149C255.156 40.2774 255.127 40.2286 255.114 40.1749C255.101 40.1211 255.105 40.0648 255.125 40.0131L258.722 28.2258C258.763 28.0955 258.853 27.985 258.973 27.916C259.074 27.8558 259.188 27.8204 259.305 27.8128H270.713C270.809 27.8137 270.902 27.8506 270.972 27.916ZM265.017 37.6381L267.164 30.6007H261.152L259.013 37.6381H265.017ZM281.861 28.0352C281.9 28.0795 281.949 28.1147 282.003 28.1381C282.058 28.1614 282.117 28.1724 282.177 28.1702H283.66C283.716 28.1707 283.772 28.1572 283.821 28.1308C283.871 28.1044 283.913 28.066 283.943 28.0193C283.97 27.9828 283.988 27.9415 283.998 27.8978C284.008 27.8542 284.008 27.809 284 27.7651L283.708 25.6682C283.68 25.5711 283.631 25.4815 283.562 25.4061C283.523 25.3617 283.475 25.3266 283.42 25.3032C283.365 25.2798 283.306 25.2688 283.246 25.271H281.764C281.707 25.2705 281.652 25.2841 281.602 25.3105C281.552 25.3369 281.51 25.3753 281.48 25.422C281.424 25.5332 281.399 25.6046 281.424 25.6682L281.723 27.7651C281.739 27.8672 281.787 27.9618 281.861 28.0352ZM286.568 25.6523C286.54 25.5552 286.491 25.4656 286.422 25.3902C286.385 25.346 286.338 25.3108 286.285 25.2874C286.231 25.264 286.173 25.253 286.115 25.2552H284.624C284.568 25.2536 284.513 25.2668 284.465 25.2934C284.416 25.3199 284.376 25.3589 284.348 25.4061C284.294 25.4765 284.271 25.565 284.284 25.6523L284.583 27.7492C284.602 27.8502 284.65 27.9439 284.721 28.0193C284.761 28.0628 284.809 28.0973 284.864 28.1206C284.919 28.1439 284.977 28.1554 285.037 28.1543H286.528C286.583 28.155 286.638 28.1415 286.686 28.115C286.734 28.0885 286.775 28.05 286.803 28.0034C286.831 27.9679 286.851 27.9266 286.861 27.8826C286.871 27.8386 286.87 27.7931 286.86 27.7492L286.568 25.6523ZM280.557 28.8295L280.411 27.7969H273.224C273.112 27.803 273.002 27.8386 272.908 27.9001C272.849 27.932 272.797 27.9763 272.756 28.0297C272.716 28.0832 272.687 28.1447 272.673 28.2099L272.074 30.1797C272.05 30.229 272.042 30.2842 272.05 30.3381C272.059 30.3919 272.084 30.442 272.122 30.4816C272.191 30.5445 272.28 30.5812 272.374 30.5848H281.108L278.961 37.6223H270.251C270.139 37.6248 270.029 37.6578 269.935 37.7175C269.82 37.7889 269.737 37.8992 269.7 38.0273L269.092 39.9972C269.073 40.0477 269.067 40.1026 269.077 40.1559C269.087 40.2092 269.112 40.2587 269.149 40.299C269.215 40.3662 269.305 40.406 269.4 40.4102H280.84C280.958 40.4002 281.073 40.362 281.172 40.299C281.292 40.2331 281.382 40.1253 281.424 39.9972L284.713 29.2266H281.01C280.952 29.2277 280.893 29.217 280.839 29.1952C280.785 29.1733 280.735 29.1408 280.694 29.0995C280.627 29.0275 280.58 28.9401 280.557 28.8453V28.8295Z" fill="white"/>
</g>
<g clip-path="url(#clip3_211_2045)">
<path d="M415.785 27.7008C415.785 27.7243 415.785 27.7538 415.779 27.7714C415.748 28.0009 415.748 28.2304 415.767 28.4657C415.779 28.5246 415.791 28.5834 415.84 28.6305C415.92 28.7188 416.043 28.7011 416.092 28.5952C416.116 28.5422 416.116 28.4893 416.104 28.4363C416.043 28.2127 416.03 27.9774 416.024 27.7479C416.024 27.7361 416.024 27.7185 416.024 27.7008C416.092 27.6949 416.153 27.689 416.208 27.689C416.251 27.6831 416.288 27.6773 416.319 27.6596C416.41 27.6125 416.41 27.5125 416.312 27.4654C416.276 27.4478 416.227 27.4419 416.184 27.4419C416.03 27.4478 415.877 27.4478 415.724 27.4478C415.669 27.4478 415.613 27.4537 415.558 27.4595C415.528 27.4654 415.491 27.4654 415.466 27.4831C415.423 27.5007 415.399 27.5302 415.399 27.5713C415.405 27.6125 415.423 27.6361 415.466 27.6537C415.491 27.6714 415.522 27.6773 415.552 27.6773C415.626 27.6831 415.705 27.6949 415.785 27.7008ZM417.471 27.9715C417.471 27.9774 417.477 27.9832 417.477 27.9832C417.502 28.1421 417.526 28.2951 417.545 28.4481C417.551 28.501 417.557 28.5481 417.594 28.5893C417.673 28.6893 417.796 28.6776 417.851 28.5717C417.876 28.5187 417.882 28.4657 417.87 28.4069C417.833 28.2304 417.814 28.0539 417.778 27.8832C417.753 27.7773 417.723 27.6773 417.692 27.5831C417.673 27.5243 417.631 27.4831 417.557 27.4772C417.483 27.4654 417.428 27.5007 417.398 27.5537C417.361 27.6008 417.33 27.6478 417.306 27.7008C417.263 27.7949 417.226 27.8891 417.177 27.9774C417.171 28.0009 417.165 28.0185 417.152 28.0362C417.146 28.0244 417.14 28.0185 417.14 28.0185C417.06 27.8714 416.987 27.7243 416.907 27.5831C416.895 27.5713 416.889 27.5596 416.883 27.5478C416.846 27.4949 416.803 27.4654 416.735 27.4654C416.674 27.4713 416.625 27.5066 416.594 27.5596C416.582 27.5831 416.582 27.6008 416.576 27.6243C416.551 27.8126 416.521 28.0009 416.496 28.1892C416.484 28.2951 416.478 28.401 416.478 28.5069C416.472 28.5305 416.478 28.5599 416.49 28.5834C416.502 28.6305 416.539 28.6599 416.588 28.6658C416.65 28.6717 416.692 28.654 416.711 28.607C416.729 28.5717 416.735 28.5422 416.742 28.5128C416.766 28.4069 416.784 28.3069 416.803 28.2068C416.815 28.148 416.821 28.1009 416.84 28.0362C416.852 28.0597 416.864 28.0774 416.876 28.095C416.932 28.1657 416.987 28.2363 417.054 28.2951C417.122 28.3422 417.177 28.3363 417.232 28.2833C417.244 28.2716 417.25 28.2657 417.263 28.2539C417.318 28.1715 417.385 28.0892 417.44 28.0068C417.453 27.995 417.459 27.9832 417.471 27.9715Z" fill="#3A3B7B"/>
<path d="M403.345 27.8165C403.302 27.9283 403.294 28.0089 403.314 28.0758C403.336 28.1669 403.392 28.1967 403.469 28.1735C404.189 28.0026 405.768 28.4877 406.352 28.6229C406.49 28.6513 406.602 28.4805 406.508 28.3273C406.371 28.179 404.793 27.544 404.19 27.5094C403.954 27.4966 403.532 27.4385 403.345 27.8165Z" fill="#3A3B7B"/>
<path d="M409.516 25.7611C409.593 25.8036 409.636 25.8441 409.657 25.8895C409.689 25.9489 409.672 25.99 409.619 26.011C409.143 26.234 408.51 27.1939 408.254 27.525C408.192 27.6012 408.049 27.5569 408.027 27.4317C408.032 27.29 408.593 26.2483 408.907 25.9646C409.03 25.8538 409.233 25.6364 409.516 25.7611Z" fill="#3A3B7B"/>
<path d="M405.725 25.2884C405.818 25.2218 405.913 25.1984 405.962 25.2417C406.681 25.8312 407.061 26.7648 407.297 27.6194C407.306 27.6393 407.307 27.6679 407.3 27.6977C407.297 27.7231 407.277 27.75 407.246 27.7709C407.214 27.7939 407.185 27.8009 407.172 27.7811C406.857 27.3701 405.059 25.7714 405.725 25.2884Z" fill="#3A3B7B"/>
<path d="M390.517 35.5091C390.689 35.3861 390.876 35.2837 391.074 35.2042C391.282 35.1474 391.502 35.1568 391.703 35.2311C391.905 35.3054 392.075 35.4405 392.189 35.6161C392.291 35.7911 392.331 35.9933 392.303 36.192C392.274 36.3907 392.18 36.5753 392.033 36.7179C391.919 36.8335 391.79 36.9342 391.648 37.0174C391.019 37.4079 390.383 37.7769 389.748 38.1674C389.618 38.2651 389.48 38.3528 389.336 38.4295C389.116 38.5347 388.865 38.5628 388.626 38.5091C388.386 38.4554 388.174 38.3232 388.026 38.1353C387.915 38.0023 387.822 37.8568 387.747 37.7021C387.145 36.4879 386.521 35.2791 385.942 34.0435C385.674 33.5087 385.457 32.8936 385.245 32.2999C385.154 32.1274 385.136 31.9274 385.195 31.7424C385.255 31.5574 385.387 31.4021 385.565 31.3094C385.742 31.2167 385.949 31.1941 386.144 31.2462C386.338 31.2983 386.504 31.4211 386.605 31.5885C386.917 31.9861 387.193 32.4084 387.43 32.8508C388.032 33.9205 388.606 34.9902 389.185 36.0279C389.219 36.0852 389.256 36.1406 389.297 36.1937C389.733 36.0177 390.143 35.7875 390.517 35.5091Z" fill="#3A3B7B"/>
<path d="M396.74 35.1359C395.364 36.6816 393.056 36.2912 391.897 34.3015C391.072 32.8894 390.928 30.5574 392.722 29.0865C393.105 28.7785 393.563 28.5688 394.054 28.4767C394.655 28.394 395.269 28.4958 395.806 28.7677C396.344 29.0395 396.778 29.4675 397.047 29.9904C398.027 31.702 397.888 33.8842 396.74 35.1359ZM396.183 31.5308C396.037 31.1102 395.743 30.7511 395.352 30.5146C395.131 30.3633 394.863 30.2898 394.592 30.3063C394.321 30.3229 394.064 30.4285 393.865 30.6055C393.068 31.2848 392.9 32.8948 393.48 33.8522C393.554 34.0083 393.662 34.147 393.798 34.2587C393.933 34.3704 394.093 34.4523 394.265 34.4986C394.437 34.545 394.617 34.5547 394.794 34.5271C394.97 34.4995 395.138 34.4353 395.286 34.3389C395.718 34.0174 396.035 33.5748 396.192 33.0725C396.35 32.5702 396.341 32.0332 396.166 31.5362L396.183 31.5308Z" fill="#3A3B7B"/>
<path d="M402.357 32.2045C402.216 32.2335 402.071 32.2353 401.929 32.2095C401.787 32.1838 401.653 32.1312 401.532 32.0547C401.427 31.997 401.337 31.9177 401.267 31.8224C401.198 31.7271 401.152 31.6183 401.131 31.5037C401.111 31.3891 401.118 31.2717 401.15 31.1598C401.183 31.0479 401.241 30.9443 401.321 30.8566C401.459 30.6802 401.655 30.554 401.878 30.4982C402.459 30.3364 403.057 30.2377 403.661 30.2041C403.794 30.1892 403.928 30.2 404.057 30.2358C404.185 30.2716 404.305 30.3315 404.408 30.4123C404.512 30.493 404.598 30.5928 404.661 30.7058C404.724 30.8189 404.763 30.9429 404.776 31.0705C404.95 31.6977 404.969 32.3553 404.832 32.9907C404.33 35.0446 402.602 35.7506 400.663 35.0928C400.119 34.9169 399.641 34.5891 399.292 34.1514C398.826 33.6243 398.496 32.9996 398.328 32.3275C398.192 31.729 398.207 31.108 398.372 30.5163C398.536 29.9245 398.846 29.3791 399.275 28.9257C399.683 28.4329 400.211 28.0451 400.814 27.7971C401.194 27.5958 401.639 27.5386 402.062 27.6367C402.158 27.6621 402.245 27.7117 402.314 27.7803C402.383 27.8489 402.432 27.934 402.455 28.0268C402.478 28.1195 402.475 28.2166 402.446 28.3079C402.417 28.3992 402.364 28.4814 402.29 28.546C402.151 28.6669 402 28.7744 401.839 28.8669C401.343 29.1697 400.912 29.5599 400.568 30.0168C400.343 30.3125 400.187 30.6521 400.113 31.0115C400.039 31.371 400.048 31.7416 400.139 32.0975C400.266 32.5827 400.546 33.0182 400.942 33.3437C402.168 34.4135 403.762 33.3812 403.483 31.921C403.076 32.0173 402.719 32.1189 402.357 32.2045Z" fill="#3A3B7B"/>
<path d="M409.848 35.2211C408.036 36.2908 405.975 35.2211 405.523 32.9747C405.194 31.3701 405.818 29.1236 408.003 28.2678C408.468 28.0896 408.972 28.0271 409.469 28.0859C410.065 28.1908 410.613 28.4728 411.034 28.8921C411.455 29.3115 411.728 29.847 411.815 30.4233C412.183 32.3328 411.347 34.3707 409.848 35.2211ZM410.477 31.6214C410.477 31.1771 410.313 30.7471 410.015 30.4073C409.855 30.1971 409.625 30.0464 409.363 29.9811C409.101 29.9157 408.823 29.9397 408.577 30.0489C407.596 30.4554 406.905 31.9316 407.156 33.0175C407.175 33.1878 407.233 33.3522 407.325 33.4989C407.417 33.6457 407.542 33.7714 407.69 33.8672C407.838 33.9629 408.006 34.0265 408.182 34.0534C408.359 34.0803 408.539 34.0699 408.711 34.023C409.229 33.8492 409.678 33.5243 409.995 33.0938C410.312 32.6632 410.48 32.1485 410.477 31.6214Z" fill="#3A3B7B"/>
<path d="M413.646 35.6707C413.619 35.8665 413.511 36.0438 413.348 36.1637C413.184 36.2835 412.978 36.3361 412.774 36.3099C412.57 36.2837 412.385 36.1807 412.26 36.0237C412.135 35.8668 412.081 35.6686 412.108 35.4728C412.135 35.2771 412.243 35.0997 412.406 34.9799C412.57 34.86 412.776 34.8074 412.98 34.8337C413.184 34.8599 413.369 34.9628 413.494 35.1198C413.619 35.2768 413.673 35.475 413.646 35.6707ZM413.161 28.4553C413.267 28.3 413.423 28.1816 413.604 28.118C413.786 28.0544 413.985 28.0489 414.17 28.1023C414.358 28.1475 414.525 28.2535 414.641 28.4025C414.758 28.5515 414.818 28.7344 414.811 28.9207C414.786 29.2194 414.74 29.5161 414.671 29.8085C414.488 30.7981 414.309 31.7875 414.114 32.7664C414.025 33.1568 413.908 33.5312 413.78 33.927C413.735 34.0508 413.661 34.1626 413.562 34.2533C413.501 34.3216 413.423 34.3739 413.336 34.4055C413.248 34.4372 413.153 34.447 413.06 34.4342C412.968 34.4214 412.88 34.3864 412.805 34.3324C412.73 34.2783 412.67 34.2069 412.632 34.1249C412.566 33.9779 412.53 33.8198 412.526 33.6596C412.526 32.9964 412.526 32.3278 412.571 31.6592C412.646 30.705 412.795 29.7575 413.016 28.8244C413.042 28.6994 413.091 28.5798 413.161 28.4714V28.4553Z" fill="#3A3B7B"/>
<path fill-rule="evenodd" clip-rule="evenodd" d="M388.162 39.9687C388.097 40.1097 388.079 40.2668 388.111 40.4181C388.132 40.6175 388.179 40.8136 388.251 41.002C388.34 41.2326 388.44 41.4607 388.563 41.7419C388.591 41.8066 388.621 41.8741 388.652 41.9452C388.818 42.326 389.026 42.8128 389.304 43.5172C389.383 43.7174 389.453 43.9191 389.523 44.1223C389.552 44.2043 389.58 44.2867 389.61 44.3692C389.714 44.6627 389.894 44.9263 390.133 45.1352C390.234 45.25 390.369 45.3337 390.52 45.3755C390.673 45.4182 390.837 45.4155 390.989 45.3678C391.141 45.32 391.275 45.2295 391.372 45.1079C391.468 44.9886 391.525 44.8449 391.536 44.6948C391.598 44.4024 391.577 44.0992 391.475 43.8173C391.312 43.3492 391.127 42.8804 390.913 42.4219L390.912 42.4199C390.561 41.7026 390.204 40.9902 389.83 40.2775L389.827 40.2725C389.717 40.0869 389.575 39.9209 389.406 39.782C389.297 39.6581 389.146 39.5745 388.979 39.5457C388.808 39.5163 388.633 39.546 388.483 39.6294C388.341 39.707 388.229 39.8258 388.162 39.9687Z" fill="#3A3B7B"/>
<path fill-rule="evenodd" clip-rule="evenodd" d="M393.529 38.2025C392.978 38.0655 392.403 38.0456 391.843 38.144C391.41 38.185 390.983 38.281 390.687 38.4711C390.537 38.5678 390.415 38.6921 390.347 38.85C390.279 39.0088 390.27 39.1903 390.326 39.3927C390.428 39.7633 390.56 40.1236 390.692 40.4828L390.714 40.5409L390.714 40.5422C391.111 41.5856 391.512 42.6255 391.916 43.6619C391.963 43.8252 392.03 43.9827 392.115 44.1313L392.117 44.1341C392.229 44.3187 392.372 44.4838 392.542 44.6225C392.627 44.6987 392.731 44.7515 392.845 44.7751C392.96 44.7988 393.079 44.792 393.19 44.7551C393.301 44.7182 393.399 44.6529 393.474 44.5661C393.548 44.4807 393.596 44.3778 393.614 44.2684C393.687 43.971 393.663 43.6592 393.546 43.375C393.51 43.2793 393.481 43.1816 393.451 43.0787C393.441 43.0444 393.431 43.0094 393.42 42.9739C394.346 42.6266 395.331 42.1596 395.677 41.0732C395.813 40.6978 395.824 40.2913 395.71 39.9094C395.595 39.5271 395.36 39.1883 395.036 38.9395C394.596 38.5913 394.082 38.3397 393.529 38.2025ZM392.002 39.535C392.02 39.5299 392.039 39.5252 392.057 39.5209C392.66 39.43 393.276 39.5511 393.793 39.862C394.021 40.0141 394.115 40.183 394.131 40.3456C394.147 40.513 394.084 40.6944 393.956 40.8688C393.716 41.1982 393.276 41.4619 392.879 41.511C392.59 40.8716 392.296 40.2062 392.002 39.535Z" fill="#3A3B7B"/>
<path d="M397.202 37.0321C397.858 36.7413 398.671 36.691 399.307 36.8955C399.467 36.9403 399.606 37.0371 399.7 37.1695C399.793 37.301 399.836 37.4595 399.822 37.618C399.821 37.7209 399.795 37.8221 399.745 37.9134C399.695 38.0063 399.622 38.0862 399.533 38.1464C399.443 38.2066 399.34 38.2452 399.232 38.259C399.124 38.2729 399.014 38.2615 398.911 38.2259L398.903 38.2232L398.896 38.2195C398.843 38.1931 398.787 38.1732 398.73 38.1603L398.726 38.1595C398.279 38.0454 397.857 38.2344 397.703 38.4666C397.629 38.5773 397.62 38.6891 397.681 38.7907C397.747 38.8996 397.908 39.0218 398.233 39.1088C398.322 39.1324 398.414 39.1552 398.507 39.1783C398.765 39.2422 399.032 39.3087 399.291 39.4007L399.292 39.4011C400.485 39.8368 400.929 40.739 400.777 41.5877C400.626 42.4269 399.896 43.1907 398.798 43.3708C398.398 43.4558 397.982 43.4393 397.591 43.3228C397.2 43.2059 396.846 42.9928 396.567 42.7043L396.559 42.6968C396.471 42.5881 396.412 42.4604 396.386 42.3249C396.361 42.2027 396.374 42.0763 396.422 41.9607C396.47 41.8459 396.551 41.7465 396.656 41.674C396.766 41.5919 396.899 41.5426 397.038 41.5323C397.177 41.5221 397.316 41.5511 397.438 41.6156C397.559 41.672 397.672 41.744 397.774 41.8296L397.776 41.8311C397.956 41.9889 398.173 42.03 398.382 41.9919C398.593 41.9533 398.792 41.8332 398.92 41.6737C399.047 41.5153 399.098 41.3271 399.038 41.1445C398.977 40.9604 398.794 40.7543 398.391 40.5819C398.286 40.539 398.177 40.5044 398.063 40.4707C398.032 40.4617 398.001 40.4526 397.97 40.4434C397.886 40.419 397.8 40.3938 397.715 40.3661C397.657 40.347 397.599 40.3289 397.541 40.311C397.385 40.262 397.232 40.2143 397.085 40.1503C396.765 40.0458 396.489 39.8451 396.297 39.578C396.105 39.3098 396.008 38.989 396.021 38.6637C396.022 37.8708 396.543 37.3245 397.202 37.0321Z" fill="#3A3B7B"/>
<path d="M405.52 36.9473C405.393 36.8877 405.252 36.8594 405.11 36.8649C404.969 36.8705 404.831 36.9098 404.71 36.9793C404.589 37.0483 404.487 37.1449 404.415 37.2606C404.348 37.358 404.302 37.4669 404.279 37.5813C404.256 37.6956 404.257 37.813 404.281 37.927C404.305 38.0735 404.331 38.216 404.357 38.3566C404.4 38.5891 404.442 38.8164 404.469 39.0482L404.47 39.0541C404.533 39.4176 404.566 39.7852 404.569 40.1536L404.569 40.1588C404.591 40.5566 404.449 40.9467 404.176 41.2463L404.171 41.2516C404.082 41.3611 403.963 41.4447 403.827 41.493C403.692 41.5414 403.545 41.5525 403.403 41.5251C403.261 41.4978 403.13 41.4331 403.024 41.3383C402.918 41.2434 402.842 41.1219 402.804 40.9878C402.722 40.7054 402.675 40.4148 402.663 40.122L402.802 37.9996C402.804 37.9719 402.807 37.9435 402.809 37.9148C402.814 37.8503 402.82 37.7846 402.822 37.7234C402.825 37.6333 402.822 37.5406 402.801 37.4529C402.778 37.3633 402.736 37.278 402.66 37.2054C402.585 37.1335 402.484 37.0804 402.357 37.0443C402.128 36.9805 401.933 36.9825 401.771 37.0485C401.61 37.1144 401.499 37.2368 401.42 37.3782C401.342 37.5184 401.292 37.6844 401.254 37.8506C401.226 37.974 401.204 38.1035 401.182 38.2268C401.175 38.2692 401.167 38.3109 401.16 38.3515L401.16 38.3527C401.045 39.0287 401.011 39.7151 401.058 40.3986C401.067 40.768 401.147 41.1325 401.295 41.4737C401.461 41.914 401.763 42.2954 402.16 42.5677C402.558 42.8405 403.033 42.9908 403.522 42.9988C404.011 43.0067 404.491 42.8719 404.898 42.6122C405.305 42.3528 405.62 41.9811 405.802 41.5463C406.057 40.9923 406.176 40.3898 406.152 39.7848C406.137 39.3431 406.112 38.898 406.087 38.4551C406.075 38.2379 406.062 38.0211 406.051 37.8057C406.046 37.5897 405.972 37.3804 405.839 37.206C405.756 37.0958 405.647 37.0069 405.52 36.9473Z" fill="#3A3B7B"/>
<path d="M410.022 40.2755C410.009 40.2913 409.996 40.3076 409.981 40.3245C409.878 39.7516 409.782 39.1788 409.686 38.6052C409.652 38.3994 409.617 38.1928 409.582 37.9867L409.578 37.9637L409.566 37.9438C409.542 37.9064 409.539 37.8698 409.539 37.7916V37.7826L409.538 37.7736C409.512 37.6122 409.436 37.4619 409.319 37.3426C409.204 37.2235 409.053 37.1407 408.887 37.1047C408.722 37.0656 408.548 37.0742 408.388 37.1295C408.228 37.1847 408.089 37.2839 407.988 37.4146C407.903 37.515 407.834 37.6263 407.782 37.7452C407.665 38.0014 407.546 38.2582 407.427 38.5157L407.425 38.5201C407.128 39.163 406.83 39.8102 406.539 40.4625L406.539 40.4646C406.36 40.8875 406.213 41.3332 406.067 41.7775C406.038 41.8662 406.008 41.9548 405.979 42.0432C405.926 42.1834 405.903 42.3323 405.911 42.4812C405.901 42.6145 405.934 42.7474 406.006 42.8621C406.079 42.979 406.189 43.0711 406.319 43.1253C406.457 43.1834 406.612 43.1958 406.758 43.1604C406.904 43.125 407.034 43.0441 407.127 42.9303C407.246 42.7901 407.348 42.6373 407.431 42.4753C407.677 41.9928 407.912 41.5044 408.146 41.0181C408.236 40.83 408.324 40.6615 408.424 40.478C408.431 40.5007 408.438 40.5227 408.445 40.5448C408.55 40.9878 408.727 41.4121 408.97 41.8021C409.015 41.8847 409.079 41.9569 409.157 42.0138C409.236 42.0713 409.326 42.1117 409.423 42.1322C409.519 42.1527 409.619 42.1528 409.715 42.1325C409.812 42.1122 409.903 42.0718 409.981 42.0145L410.137 41.9028L411.344 40.9271L411.272 41.3637C411.174 41.9637 411.077 42.5587 410.974 43.1539C410.906 43.4177 410.906 43.6932 410.974 43.9569C411.003 44.1053 411.078 44.242 411.189 44.3494C411.3 44.4577 411.443 44.5313 411.599 44.5607C411.755 44.59 411.916 44.5737 412.062 44.514C412.206 44.4551 412.328 44.3567 412.414 44.2312C412.613 43.9942 412.737 43.7074 412.771 43.4047C412.822 42.9773 412.88 42.5441 412.938 42.111C413.004 41.6118 413.071 41.1128 413.127 40.6233L413.128 40.6218C413.182 40.086 413.208 39.548 413.206 39.0097C413.218 38.8395 413.174 38.6701 413.08 38.5252C412.985 38.3799 412.846 38.2669 412.681 38.2023C412.509 38.1273 412.316 38.1072 412.132 38.1451C411.949 38.1828 411.783 38.2755 411.658 38.4099C411.435 38.6075 411.227 38.8189 411.033 39.0429L411.032 39.0444C410.82 39.2973 410.61 39.5552 410.401 39.8114C410.275 39.9672 410.148 40.1225 410.022 40.2755Z" fill="#3A3B7B"/>
</g>
<g clip-path="url(#clip4_211_2045)">
<path d="M542.081 26.5033C542.081 26.8277 542.347 27.0906 542.675 27.0906H543.27C543.598 27.0906 543.864 26.8277 543.864 26.5033C543.864 26.179 543.598 25.916 543.27 25.916H542.675C542.347 25.916 542.081 26.179 542.081 26.5033Z" fill="#212326"/>
<path d="M524.838 44.7099H527.726L526.886 43.8793C526.663 43.659 526.36 43.5353 526.045 43.5353H524.838C520.241 43.5353 516.514 39.854 516.514 35.313C516.514 30.7719 520.241 27.0906 524.838 27.0906H534.351C538.948 27.0906 542.675 30.7719 542.675 35.313C542.675 39.854 538.948 43.5353 534.351 43.5353H530.792C530.319 43.5353 529.866 43.3496 529.531 43.0192L528.546 42.0461C527.989 41.4954 527.232 41.186 526.444 41.186H524.838C521.554 41.186 518.893 38.5566 518.893 35.313C518.893 32.0693 521.554 29.4399 524.838 29.4399H534.351C537.635 29.4399 540.297 32.0693 540.297 35.313C540.297 38.5566 537.635 41.186 534.351 41.186H532.066C531.593 41.186 531.139 41.0004 530.805 40.67L529.82 39.6969C529.262 39.1462 528.506 38.8368 527.718 38.8368H524.838C522.868 38.8368 521.271 37.2591 521.271 35.313C521.271 33.3668 522.868 31.7891 524.838 31.7891H534.351C536.321 31.7891 537.918 33.3668 537.918 35.313C537.918 37.2354 536.36 38.7983 534.423 38.8361L534.423 38.8368H533.553C533.079 38.8368 532.626 38.6512 532.291 38.3208L531.306 37.3477C530.849 36.8958 530.258 36.6064 529.624 36.5171L529.595 36.4876H524.838C524.181 36.4876 523.649 35.9617 523.649 35.313C523.649 34.6642 524.181 34.1383 524.838 34.1383H534.351C535.008 34.1383 535.54 34.6642 535.54 35.313C535.54 35.9617 535.008 36.4876 534.351 36.4876H531.973L532.814 37.3182C533.037 37.5384 533.339 37.6622 533.655 37.6622H534.351C535.665 37.6622 536.729 36.6104 536.729 35.313C536.729 34.0155 535.665 32.9637 534.351 32.9637H524.838C523.525 32.9637 522.46 34.0155 522.46 35.313C522.46 36.6104 523.525 37.6622 524.838 37.6622H529.204C529.677 37.6622 530.131 37.8478 530.465 38.1782L531.45 39.1513C532.008 39.702 532.764 40.0114 533.553 40.0114H534.648V40.0024C537.137 39.8508 539.108 37.8092 539.108 35.313C539.108 32.7181 536.978 30.6145 534.351 30.6145H524.838C522.211 30.6145 520.082 32.7181 520.082 35.313C520.082 37.9079 522.211 40.0114 524.838 40.0114H527.718C528.191 40.0114 528.644 40.1971 528.979 40.5275L529.964 41.5006C530.522 42.0513 531.278 42.3607 532.066 42.3607H534.351C538.292 42.3607 541.486 39.2053 541.486 35.313C541.486 31.4206 538.292 28.2652 534.351 28.2652H524.838C520.898 28.2652 517.703 31.4206 517.703 35.313C517.703 39.2053 520.898 42.3607 524.838 42.3607H526.444C526.917 42.3607 527.371 42.5463 527.705 42.8767L528.69 43.8498C529.248 44.4005 530.004 44.7099 530.792 44.7099H534.351C539.605 44.7099 543.864 40.5027 543.864 35.313C543.864 30.1232 539.605 25.916 534.351 25.916L524.838 25.916C519.584 25.916 515.325 30.1232 515.325 35.313C515.325 40.5027 519.584 44.7099 524.838 44.7099Z" fill="#212326"/>
</g>
<g clip-path="url(#clip5_211_2045)">
<path d="M647.817 28.0039C646.404 28.0039 645.048 28.5654 644.049 29.5649L640.787 32.8269C639.787 33.8264 639.226 35.1821 639.226 36.5956C639.226 39.5391 641.612 41.9253 644.555 41.9253C645.969 41.9253 647.324 41.3638 648.324 40.3642L650.58 38.1079C650.58 38.1079 650.58 38.108 650.58 38.1079L657.154 31.5337C657.632 31.0564 658.279 30.7882 658.954 30.7882C660.085 30.7882 661.043 31.5248 661.375 32.5442L663.45 30.4694C662.503 28.9869 660.844 28.0039 658.954 28.0039C657.541 28.0039 656.185 28.5654 655.186 29.5649L646.355 38.3955C645.878 38.8728 645.23 39.141 644.555 39.141C643.149 39.141 642.01 38.0014 642.01 36.5956C642.01 35.9205 642.278 35.2731 642.755 34.7957L646.017 31.5337C646.495 31.0564 647.142 30.7882 647.817 30.7882C648.948 30.7882 649.906 31.5248 650.238 32.5442L652.313 30.4694C651.366 28.9869 649.707 28.0039 647.817 28.0039Z" fill="#394149"/>
<path d="M657.492 38.3955C657.015 38.8728 656.368 39.141 655.693 39.141C654.562 39.141 653.604 38.4046 653.272 37.3854L651.197 39.4601C652.144 40.9424 653.803 41.9253 655.693 41.9253C657.106 41.9253 658.462 41.3638 659.461 40.3642L668.292 31.5337C668.769 31.0564 669.417 30.7882 670.092 30.7882C671.497 30.7882 672.637 31.9278 672.637 33.3336C672.637 34.0087 672.369 34.6561 671.892 35.1335L668.63 38.3955C668.152 38.8728 667.505 39.141 666.83 39.141C665.699 39.141 664.741 38.4044 664.409 37.3852L662.334 39.46C663.281 40.9424 664.94 41.9253 666.83 41.9253C668.243 41.9253 669.599 41.3638 670.598 40.3642L673.86 37.1023C674.86 36.1028 675.421 34.7471 675.421 33.3336C675.421 30.3901 673.035 28.0039 670.092 28.0039C668.678 28.0039 667.322 28.5654 666.323 29.5649L657.492 38.3955Z" fill="#394149"/>
</g>
<g clip-path="url(#clip6_211_2045)">
<path d="M804.887 31.9507C804.891 31.9217 804.891 31.8924 804.887 31.8634C804.891 31.8397 804.891 31.8156 804.887 31.7919L804.603 29.7506C804.562 29.5063 804.453 29.2781 804.287 29.0913L804.239 29.0357L804.15 28.9483L799.24 24.8021L799.377 24.9372C799.265 24.805 799.123 24.6993 798.963 24.6278C798.804 24.5563 798.629 24.5209 798.454 24.5241H796.963C796.721 24.5194 796.484 24.595 796.291 24.7386C796.088 24.5958 795.844 24.5207 795.594 24.5241H794.103C793.908 24.521 793.715 24.5686 793.544 24.662C793.373 24.7555 793.231 24.8915 793.131 25.0563C792.977 25.2917 792.919 25.5753 792.969 25.8506L793.155 27.1373C793.032 27.0687 792.892 27.0331 792.75 27.0341H785.531C785.272 27.0357 785.019 27.1101 784.802 27.2485C784.592 27.3774 784.423 27.5619 784.316 27.7807L783.757 27.3121C783.537 27.1125 783.246 27.0043 782.947 27.0103H771.62C771.36 27.0149 771.106 27.0861 770.883 27.2168C770.578 27.392 770.354 27.6769 770.259 28.0111L766.662 39.8063C766.595 40.0006 766.588 40.2102 766.643 40.4083C766.698 40.6063 766.811 40.7839 766.97 40.9183C767.011 40.9525 767.054 40.9844 767.099 41.0136C767.099 41.0136 767.026 40.9659 766.986 40.9262L771.896 45.0804C772.103 45.2678 772.375 45.3726 772.657 45.3742H784.073C784.334 45.3676 784.588 45.2936 784.81 45.1598C784.936 45.0924 785.048 45.0037 785.142 44.8976L785.183 44.842L785.248 44.7626L785.296 44.6752L785.831 45.128C786.036 45.308 786.301 45.4071 786.576 45.406H798.016C798.277 45.3975 798.531 45.3237 798.754 45.1916C798.876 45.1201 798.988 45.0318 799.086 44.9294L799.126 44.8738L799.191 44.7944C799.226 44.7442 799.255 44.691 799.28 44.6355C799.307 44.5874 799.328 44.5368 799.345 44.4846L802.626 33.7141V33.6188C802.63 33.5818 802.63 33.5445 802.626 33.5076V33.4361C802.63 33.4124 802.63 33.3883 802.626 33.3646C802.63 33.3143 802.63 33.2639 802.626 33.2136H803.68C803.771 33.2219 803.863 33.2219 803.955 33.2136H804.028C804.087 33.1963 804.144 33.1723 804.198 33.1422H804.279L804.425 33.031L804.49 32.9833L804.603 32.8403V32.7927L804.684 32.6577C804.68 32.6314 804.68 32.6045 804.684 32.5782C804.68 32.5654 804.68 32.5514 804.684 32.5385C804.701 32.492 804.715 32.4441 804.725 32.3955C804.721 32.3799 804.721 32.3635 804.725 32.3479C804.721 32.3242 804.721 32.3 804.725 32.2764C804.725 32.2764 804.887 31.9666 804.887 31.9507Z" fill="black"/>
<path d="M783.279 27.916C783.322 27.9542 783.352 28.0043 783.365 28.0597C783.378 28.1151 783.373 28.173 783.352 28.2258L779.762 40.0131C779.717 40.1417 779.625 40.2493 779.503 40.3149C779.404 40.3798 779.29 40.4181 779.171 40.4261H767.763C767.666 40.4215 767.574 40.3819 767.504 40.3149C767.463 40.2774 767.434 40.2286 767.421 40.1749C767.408 40.1211 767.411 40.0648 767.431 40.0131L771.028 28.2258C771.07 28.0955 771.159 27.985 771.28 27.916C771.38 27.8558 771.494 27.8204 771.612 27.8128H783.019C783.116 27.8137 783.209 27.8506 783.279 27.916ZM777.324 37.6381L779.471 30.6007H773.459L771.32 37.6381H777.324ZM794.168 28.0352C794.207 28.0795 794.255 28.1147 794.31 28.1381C794.365 28.1614 794.424 28.1724 794.484 28.1702H795.966C796.023 28.1707 796.078 28.1572 796.128 28.1308C796.178 28.1044 796.22 28.066 796.25 28.0193C796.276 27.9828 796.295 27.9415 796.305 27.8978C796.314 27.8542 796.315 27.809 796.307 27.7651L796.015 25.6682C795.987 25.5711 795.937 25.4815 795.869 25.4061C795.83 25.3617 795.782 25.3266 795.727 25.3032C795.672 25.2798 795.613 25.2688 795.553 25.271H794.07C794.014 25.2705 793.958 25.2841 793.909 25.3105C793.859 25.3369 793.817 25.3753 793.787 25.422C793.73 25.5332 793.706 25.6046 793.73 25.6682L794.03 27.7651C794.045 27.8672 794.094 27.9618 794.168 28.0352ZM798.875 25.6523C798.847 25.5552 798.797 25.4656 798.729 25.3902C798.692 25.346 798.645 25.3108 798.591 25.2874C798.538 25.264 798.48 25.253 798.421 25.2552H796.93C796.875 25.2536 796.82 25.2668 796.771 25.2934C796.723 25.3199 796.683 25.3589 796.655 25.4061C796.601 25.4765 796.578 25.565 796.59 25.6523L796.89 27.7492C796.909 27.8502 796.956 27.9439 797.028 28.0193C797.067 28.0628 797.116 28.0973 797.171 28.1206C797.225 28.1439 797.284 28.1554 797.344 28.1543H798.834C798.89 28.155 798.944 28.1415 798.993 28.115C799.041 28.0885 799.081 28.05 799.11 28.0034C799.138 27.9679 799.158 27.9266 799.168 27.8826C799.177 27.8386 799.177 27.7931 799.167 27.7492L798.875 25.6523ZM792.863 28.8295L792.717 27.7969H785.531C785.418 27.803 785.309 27.8386 785.215 27.9001C785.155 27.932 785.103 27.9763 785.063 28.0297C785.022 28.0832 784.994 28.1447 784.98 28.2099L784.38 30.1797C784.357 30.229 784.348 30.2842 784.357 30.3381C784.366 30.3919 784.391 30.442 784.429 30.4816C784.497 30.5445 784.587 30.5812 784.68 30.5848H793.414L791.267 37.6223H782.558C782.445 37.6248 782.336 37.6578 782.242 37.7175C782.127 37.7889 782.043 37.8992 782.007 38.0273L781.399 39.9972C781.379 40.0477 781.374 40.1026 781.384 40.1559C781.394 40.2092 781.419 40.2587 781.456 40.299C781.522 40.3662 781.612 40.406 781.707 40.4102H793.147C793.265 40.4002 793.379 40.362 793.479 40.299C793.599 40.2331 793.688 40.1253 793.73 39.9972L797.02 29.2266H793.317C793.258 29.2277 793.2 29.217 793.146 29.1952C793.091 29.1733 793.042 29.1408 793.001 29.0995C792.934 29.0275 792.887 28.9401 792.863 28.8453V28.8295Z" fill="white"/>
</g>
<defs>
<clipPath id="clip0_211_2045">
<rect width="27.8428" height="27.8428" fill="white" transform="translate(3.01807 21.1499)"/>
</clipPath>
<clipPath id="clip1_211_2045">
<rect width="27.8428" height="19.4899" fill="white" transform="translate(131.095 25.2197)"/>
</clipPath>
<clipPath id="clip2_211_2045">
<rect width="38.2838" height="20.8821" fill="white" transform="translate(254.299 24.5239)"/>
</clipPath>
<clipPath id="clip3_211_2045">
<rect width="32.7153" height="20.186" fill="white" transform="translate(385.161 25.2197)"/>
</clipPath>
<clipPath id="clip4_211_2045">
<rect width="28.5388" height="18.7939" fill="white" transform="translate(515.325 25.916)"/>
</clipPath>
<clipPath id="clip5_211_2045">
<rect width="36.1956" height="13.9214" fill="white" transform="translate(639.226 28.0039)"/>
</clipPath>
<clipPath id="clip6_211_2045">
<rect width="38.2838" height="20.8821" fill="white" transform="translate(766.606 24.5239)"/>
</clipPath>
</defs>
</svg>
